#
# Bonnland_102.obj
# enriched with normals and texture information by l3tex 
#
# l3tex created by Dirk (jtk) Frommholz
# at DLR Berlin-Adlershof
#

#
# Min model coords = (561796.0176; 5544221.41106; 266.238)
# Max model coords = (562208.98166; 5544782.3151; 328.694)
# Center model coords = (562002.49963; 5544501.86308; 297.466)
# Model dimension = (412.96406; 560.90404; 62.456)
#
#
# Input user transform has been applied:
#
#    1   0   0   560000   
#    0   1   0   5540000   
#    0   0   1   0   
#    0   0   0   1   
#
# Model center has been moved to (0; 0; 0)
#
# Final output transform has been applied:
#
#    1   0   0   -562002.49963   
#    0   1   0   -5544501.86308   
#    0   0   1   -297.466   
#    0   0   0   1   
#

# materials and texture bitmaps
mtllib Bonnland_102.mtl


# 42 vertices
v -149.11292	112.75761	-5.968
v -145.71418	113.723649999	-1.354
v -141.28769	116.23416	-7.089
v -142.09117	105.94401	-1.189
v -145.71418	113.723649999	-1.354
v -145.64277	104.453009999	-5.455
v -145.71418	113.723649999	-1.354
v -149.11292	112.75761	-5.968
v -145.64277	104.453009999	-5.455
v -138.00215	107.66061	-6.189
v -145.71418	113.723649999	-1.354
v -142.09117	105.94401	-1.189
v -141.61013	116.097229999	-6.694
v -145.71418	113.723649999	-1.354
v -138.00215	107.66061	-6.189
v -138.00215	107.66061	-21.189
v -141.61013	116.097229999	-21.694
v -138.00215	107.66061	-6.189
v -141.61013	116.097229999	-21.694
v -141.61013	116.097229999	-6.694
v -138.00215	107.66061	-6.189
v -142.09117	105.94401	-1.189
v -145.64277	104.453009999	-5.455
v -145.64277	104.453009999	-20.455
v -142.09117	105.94401	-1.189
v -145.64277	104.453009999	-20.455
v -138.00215	107.66061	-21.189
v -142.09117	105.94401	-1.189
v -138.00215	107.66061	-21.189
v -138.00215	107.66061	-6.189
v -145.64277	104.453009999	-20.455
v -149.11292	112.75761	-20.968
v -145.64277	104.453009999	-5.455
v -149.11292	112.75761	-20.968
v -149.11292	112.75761	-5.968
v -145.64277	104.453009999	-5.455
v -141.61013	116.097229999	-6.694
v -149.11292	112.75761	-5.968
v -149.11292	112.75761	-20.968
v -141.61013	116.097229999	-6.694
v -149.11292	112.75761	-20.968
v -141.61013	116.097229999	-21.694

# 42 vertex normals
vn 0.921663162788	-0.270472995814	0.278175075977
vn -0.0435144523382	0.320910131119	0.946109496931
vn -0.392371274326	0.914621524004	0.0975307690514
vn 0.395253976597	-0.886190286662	0.24174587858
vn -0.0435144523382	0.320910131119	0.946109496931
vn 0.946182060091	0.103010983443	0.30680326995
vn -0.0435144523382	0.320910131119	0.946109496931
vn 0.921663162788	-0.270472995814	0.278175075977
vn 0.946182060091	0.103010983443	0.30680326995
vn 0.949778191201	0.228780810054	0.213496436669
vn -0.0435144523382	0.320910131119	0.946109496931
vn 0.395253976597	-0.886190286662	0.24174587858
vn 0.866707715389	-0.479251356644	0.138332473554
vn -0.0435144523382	0.320910131119	0.946109496931
vn 0.949778191201	0.228780810054	0.213496436669
vn 0.807798297048	-0.589458998818	1.96185724939e-007
vn 0.999899330472	-0.0141890422771	0
vn 0.949778191201	0.228780810054	0.213496436669
vn 0.999899330472	-0.0141890422771	0
vn 0.866707715389	-0.479251356644	0.138332473554
vn 0.949778191201	0.228780810054	0.213496436669
vn 0.395253976597	-0.886190286662	0.24174587858
vn 0.946182060091	0.103010983443	0.30680326995
vn 0.811611225558	-0.584197927545	2.02151004711e-007
vn 0.395253976597	-0.886190286662	0.24174587858
vn 0.811611225558	-0.584197927545	2.02151004711e-007
vn 0.807798297048	-0.589458998818	1.96185724939e-007
vn 0.395253976597	-0.886190286662	0.24174587858
vn 0.807798297048	-0.589458998818	1.96185724939e-007
vn 0.949778191201	0.228780810054	0.213496436669
vn -0.811611225558	0.584197927545	-2.02151004711e-007
vn -0.944937185914	0.327251760388	-0
vn -0.946182060091	-0.103010983443	-0.30680326995
vn -0.944937185914	0.327251760388	-0
vn -0.921663162788	0.270472995814	-0.278175075977
vn -0.946182060091	-0.103010983443	-0.30680326995
vn -0.866707715389	0.479251356644	-0.138332473554
vn -0.921663162788	0.270472995814	-0.278175075977
vn -0.944937185914	0.327251760388	-0
vn -0.866707715389	0.479251356644	-0.138332473554
vn -0.944937185914	0.327251760388	-0
vn -0.999899330472	0.0141890422771	-0

# 42 texture positions
vt 0.0877396028586	0.805979752086
vt 0.168549664085	0.85942135185
vt 0.270728419367	0.933206520517
vt 0.0801393012766	0.844922157519
vt 0.260148261787	0.983752599732
vt 0.0243522154683	0.929659779176
vt 0.401888242236	0.899686128569
vt 0.357023737897	0.98093593274
vt 0.166092195918	0.845593308013
vt 0.36654107604	0.696043642791
vt 0.477157059441	0.925101573339
vt 0.297148098931	0.786271131126
vt 0.0974931327141	0.705967543475
vt 0.17973443616	0.616442903689
vt 0.290350419561	0.845500834237
vt 0.486859055226	0.608284924485
vt 0.486662537377	0.788163803441
vt 0.287437767811	0.580425938286
vt 0.0202428436755	0.726154228482
vt 0.040205073417	0.527362537435
vt 0.22798070883	0.526929458915
vt 0.720498602026	0.947214026208
vt 0.634267150906	0.98091667638
vt 0.491580469393	0.861671341125
vt 0.642160244503	0.747800636549
vt 0.871078377136	0.833343321632
vt 0.789936679253	0.980058307551
vt 0.978563118155	0.956011680167
vt 0.830786683406	0.723754009165
vt 0.976776824596	0.83615644801
vt 0.601577873221	0.710709186959
vt 0.498440019051	0.843474414002
vt 0.633300760392	0.88152151162
vt 0.982527541033	0.64311255082
vt 0.807818662647	0.669623002444
vt 0.944480443414	0.777973292162
vt 0.750778733086	0.548878993754
vt 0.646902409647	0.698625482769
vt 0.79865090223	0.781833483131
vt 0.512264559088	0.497070587107
vt 0.560136728232	0.730025076484
vt 0.659014412683	0.587081527334

# 14 triangles
usemtl Bonnland_102
f 1/1/1	2/2/2	3/3/3
f 4/4/4	5/5/5	6/6/6
f 7/7/7	8/8/8	9/9/9
f 10/10/10	11/11/11	12/12/12
f 13/13/13	14/14/14	15/15/15
f 16/16/16	17/17/17	18/18/18
f 19/19/19	20/20/20	21/21/21
f 22/22/22	23/23/23	24/24/24
f 25/25/25	26/26/26	27/27/27
f 28/28/28	29/29/29	30/30/30
f 31/31/31	33/33/33	32/32/32
f 34/34/34	36/36/36	35/35/35
f 37/37/37	39/39/39	38/38/38
f 40/40/40	42/42/42	41/41/41
